{"title":"Aaaaaaaah! (2015) 720p BDRip x264-pong","uid":15601363,"size":675682596,"categoryP":"video","categoryS":"movies","magnet":"?xt=urn:btih:f013426789b869b2be99dfea446ec27dea607f74&amp;dn=Aaaaaaaah%21+%282015%29+720p+BDRip+x264-pong&amp;tr=udp%3A%2F%2Ftracker.leechers-paradise.org%3A6969&amp;tr=udp%3A%2F%2Fzer0day.ch%3A1337&amp;tr=udp%3A%2F%2Fopen.demonii.com%3A1337&amp;tr=udp%3A%2F%2Ftracker.coppersurfer.tk%3A6969&amp;tr=udp%3A%2F%2Fexodus.desync.com%3A6969","seeders":1,"leechers":0,"uploader":"Pongydog","files":1,"time":1471654438,"description":"http://www.imdb.com/title/tt4501706\r\n\r\nEver imagined what life would be like if humans were apes in modern life? That is the portrayal in this deeply thought provoking mind boggle. \r\n\r\nDirector: Steve Oram  \r\n\r\nWriter: Steve Oram  \r\n\r\nStars: Jade Alexander,  Julian Barratt,  Missa Blue  | See full cast &amp; crew » \r\n\r\n\r\n\r\n-----------\r\nGeneral\r\nComplete name                            : C:Usersuser1VideosAaaaaaaah! (2015) 720p BDRip x264-pong.mp4\r\nFormat                                   : MPEG-4\r\nFormat profile                           : Base Media / Version 2\r\nCodec ID                                 : mp42 (isom/iso2/avc1/mp41)\r\nFile size                                : 644 MiB\r\nDuration                                 : 1h 19mn\r\nOverall bit rate mode                    : Variable\r\nOverall bit rate                         : 1 133 Kbps\r\nEncoded date                             : UTC 2016-08-19 01:25:43\r\nTagged date                              : UTC 2016-08-19 01:25:43\r\nWriting application                      : HandBrake 0.10.5 2016021100\r\n\r\nVideo\r\nID                                       : 1\r\nFormat                                   : AVC\r\nFormat/Info                              : Advanced Video Codec\r\nFormat profile                           :   \r\nFormat settings, CABAC                   : Yes\r\nFormat settings, ReFrames                : 8 frames\r\nCodec ID                                 : avc1\r\nCodec ID/Info                            : Advanced Video Coding\r\nDuration                                 : 1h 19mn\r\nBit rate                                 : 1 000 Kbps\r\nWidth                                    : 960 pixels\r\nHeight                                   : 720 pixels\r\nDisplay aspect ratio                     : 4:3\r\nFrame rate mode                          : Constant\r\nFrame rate                               : 25.000 fps\r\nColor space                              : YUV\r\nChroma subsampling                       : 4:2:0\r\nBit depth                                : 8 bits\r\nScan type                                : Progressive\r\nBits/(Pixel*Frame)                       : 0.058\r\nStream size                              : 568 MiB (88%)\r\nWriting library                          : x264 core 142 r2479 dd79a61\r\nEncoding settings                        : cabac=1 / ref=8 / deblock=1:0:0 / analyse=0x3:0x133 / me=umh / subme=9 / psy=1 / psy_rd=1.00:0.00 / mixed_ref=1 / me_range=16 / chroma_me=1 / trellis=2 / 8x8dct=1 / cqm=0 / deadzone=21,11 / fast_pskip=1 / chroma_qp_offset=-2 / threads=3 / lookahead_threads=1 / sliced_threads=0 / nr=0 / decimate=1 / interlaced=0 / bluray_compat=0 / constrained_intra=0 / bframes=3 / b_pyramid=2 / b_adapt=2 / b_bias=0 / direct=3 / weightb=1 / open_gop=0 / weightp=2 / keyint=250 / keyint_min=25 / scenecut=40 / intra_refresh=0 / rc_lookahead=60 / rc=2pass / mbtree=1 / bitrate=1000 / ratetol=1.0 / qcomp=0.60 / qpmin=0 / qpmax=69 / qpstep=4 / cplxblur=20.0 / qblur=0.5 / vbv_maxrate=62500 / vbv_bufsize=78125 / nal_hrd=none / filler=0 / ip_ratio=1.40 / aq=1:1.00\r\nEncoded date                             : UTC 2016-08-19 01:25:43\r\nTagged date                              : UTC 2016-08-19 01:25:43\r\nColor range                              : Limited\r\nColor primaries                          : BT.709\r\nTransfer characteristics                 : BT.709\r\nMatrix coefficients                      : BT.709\r\nMenus                                    : 3\r\n\r\nAudio\r\nID                                       : 2\r\nFormat                                   : AAC\r\nFormat/Info                              : Advanced Audio Codec\r\nFormat profile                           : LC\r\nCodec ID                                 : 40\r\nDuration                                 : 1h 19mn\r\nBit rate mode                            : Variable\r\nBit rate                                 : 128 Kbps\r\nChannel(s)                               : 2 channels\r\nChannel positions                        : Front: L R\r\nSampling rate                            : 48.0 KHz\r\nFrame rate                               : 46.875 fps (1024 spf)\r\nCompression mode                         : Lossy\r\nStream size                              : 72.6 MiB (11%)\r\nTitle                                    : Stereo / Stereo\r\nLanguage                                 : English\r\nDefault                                  : Yes\r\nAlternate group                          : 1\r\nEncoded date                             : UTC 2016-08-19 01:25:43\r\nTagged date                              : UTC 2016-08-19 01:25:43\r\nMenus                                    : 3","torrent":{"xt":"urn:btih:f013426789b869b2be99dfea446ec27dea607f74","amp;dn":"Aaaaaaaah%21+%282015%29+720p+BDRip+x264-pong","amp;tr":["udp%3A%2F%2Ftracker.leechers-paradise.org%3A6969","udp%3A%2F%2Fzer0day.ch%3A1337","udp%3A%2F%2Fopen.demonii.com%3A1337","udp%3A%2F%2Ftracker.coppersurfer.tk%3A6969","udp%3A%2F%2Fexodus.desync.com%3A6969"],"infoHash":"f013426789b869b2be99dfea446ec27dea607f74","infoHashBuffer":{"type":"Buffer","data":[240,19,66,103,137,184,105,178,190,153,223,234,68,110,194,125,234,96,127,116]},"announce":[],"urlList":[]}}